<svg width="25" height="25" viewBox="0 0 25 25" fill="none" xmlns="http://www.w3.org/2000/svg">
<g clip-path="url(#clip0_656_465)">
<mask id="mask0_656_465" style="mask-type:luminance" maskUnits="userSpaceOnUse" x="0" y="0" width="25" height="25">
<path d="M25 0H0V25H25V0Z" fill="white"/>
</mask>
<g mask="url(#mask0_656_465)">
<path d="M8.76803 11.565H2.7372C1.22789 11.565 0 10.3371 0 8.82784V2.79702C0 1.2877 1.22789 0.0598145 2.7372 0.0598145H8.76803C10.2773 0.0598145 11.5052 1.2877 11.5052 2.79702V8.82784C11.5052 10.3371 10.2773 11.565 8.76803 11.565ZM2.7372 1.05583C1.77709 1.05583 0.996016 1.83696 0.996016 2.79702V8.82784C0.996016 9.7879 1.77709 10.569 2.7372 10.569H8.76803C9.72814 10.569 10.5092 9.7879 10.5092 8.82784V2.79702C10.5092 1.83696 9.72814 1.05583 8.76803 1.05583H2.7372Z" fill="#1F1F22"/>
<mask id="mask1_656_465" style="mask-type:luminance" maskUnits="userSpaceOnUse" x="0" y="0" width="12" height="12">
<path d="M8.76803 11.565H2.7372C1.22789 11.565 0 10.3371 0 8.82784V2.79702C0 1.2877 1.22789 0.0598145 2.7372 0.0598145H8.76803C10.2773 0.0598145 11.5052 1.2877 11.5052 2.79702V8.82784C11.5052 10.3371 10.2773 11.565 8.76803 11.565ZM2.7372 1.05583C1.77709 1.05583 0.996016 1.83696 0.996016 2.79702V8.82784C0.996016 9.7879 1.77709 10.569 2.7372 10.569H8.76803C9.72814 10.569 10.5092 9.7879 10.5092 8.82784V2.79702C10.5092 1.83696 9.72814 1.05583 8.76803 1.05583H2.7372Z" fill="white"/>
</mask>
<g mask="url(#mask1_656_465)">
<path d="M8.76803 9.56504H2.7372V13.565H8.76803V9.56504ZM2.7372 9.56504C2.33248 9.56504 2 9.23256 2 8.82784H-2C-2 11.4417 0.123296 13.565 2.7372 13.565V9.56504ZM2 8.82784V2.79702H-2V8.82784H2ZM2 2.79702C2 2.39227 2.33246 2.05981 2.7372 2.05981V-1.94019C0.123319 -1.94019 -2 0.183137 -2 2.79702H2ZM2.7372 2.05981H8.76803V-1.94019H2.7372V2.05981ZM8.76803 2.05981C9.17277 2.05981 9.50523 2.39227 9.50523 2.79702H13.5052C13.5052 0.183137 11.3819 -1.94019 8.76803 -1.94019V2.05981ZM9.50523 2.79702V8.82784H13.5052V2.79702H9.50523ZM9.50523 8.82784C9.50523 9.23256 9.17275 9.56504 8.76803 9.56504V13.565C11.3819 13.565 13.5052 11.4417 13.5052 8.82784H9.50523ZM2.7372 -0.944166C0.672485 -0.944166 -1.00398 0.732427 -1.00398 2.79702H2.99602C2.99602 2.94149 2.8817 3.05583 2.7372 3.05583V-0.944166ZM-1.00398 2.79702V8.82784H2.99602V2.79702H-1.00398ZM-1.00398 8.82784C-1.00398 10.8924 0.672485 12.569 2.7372 12.569V8.56903C2.8817 8.56903 2.99602 8.68337 2.99602 8.82784H-1.00398ZM2.7372 12.569H8.76803V8.56903H2.7372V12.569ZM8.76803 12.569C10.8327 12.569 12.5092 10.8924 12.5092 8.82784H8.50921C8.50921 8.68337 8.62353 8.56903 8.76803 8.56903V12.569ZM12.5092 8.82784V2.79702H8.50921V8.82784H12.5092ZM12.5092 2.79702C12.5092 0.732427 10.8327 -0.944166 8.76803 -0.944166V3.05583C8.62353 3.05583 8.50921 2.94149 8.50921 2.79702H12.5092ZM8.76803 -0.944166H2.7372V3.05583H8.76803V-0.944166Z" fill="#1F1F22"/>
</g>
<path d="M2.33565 9.0638C2.0606 9.0638 1.83765 8.84079 1.83765 8.56579V7.42037C1.83765 7.14537 2.0606 6.92236 2.33565 6.92236C2.6107 6.92236 2.83366 7.14537 2.83366 7.42037V8.56579C2.83366 8.84079 2.6107 9.0638 2.33565 9.0638Z" fill="#1F1F22"/>
<mask id="mask2_656_465" style="mask-type:luminance" maskUnits="userSpaceOnUse" x="1" y="6" width="2" height="4">
<path d="M2.33565 9.0638C2.0606 9.0638 1.83765 8.84079 1.83765 8.56579V7.42037C1.83765 7.14537 2.0606 6.92236 2.33565 6.92236C2.6107 6.92236 2.83366 7.14537 2.83366 7.42037V8.56579C2.83366 8.84079 2.6107 9.0638 2.33565 9.0638Z" fill="white"/>
</mask>
<g mask="url(#mask2_656_465)">
<path d="M2.33565 7.0638C3.1653 7.0638 3.83765 7.73635 3.83765 8.56579H-0.162354C-0.162354 9.94523 0.955905 11.0638 2.33565 11.0638V7.0638ZM3.83765 8.56579V7.42037H-0.162354V8.56579H3.83765ZM3.83765 7.42037C3.83765 8.24981 3.1653 8.92236 2.33565 8.92236V4.92236C0.955905 4.92236 -0.162354 6.04093 -0.162354 7.42037H3.83765ZM2.33565 8.92236C1.506 8.92236 0.833662 8.24981 0.833662 7.42037H4.83366C4.83366 6.04093 3.7154 4.92236 2.33565 4.92236V8.92236ZM0.833662 7.42037V8.56579H4.83366V7.42037H0.833662ZM0.833662 8.56579C0.833662 7.73635 1.506 7.0638 2.33565 7.0638V11.0638C3.7154 11.0638 4.83366 9.94523 4.83366 8.56579H0.833662Z" fill="#1F1F22"/>
</g>
<path d="M2.33565 6.07575C2.0606 6.07575 1.83765 5.85274 1.83765 5.57774V3.24208C1.83765 2.50065 2.44083 1.89746 3.18227 1.89746H4.28287C4.55792 1.89746 4.78087 2.12047 4.78087 2.39547C4.78087 2.67047 4.55792 2.89348 4.28287 2.89348H3.18227C2.99004 2.89348 2.83366 3.0499 2.83366 3.24208V5.57774C2.83366 5.85274 2.6107 6.07575 2.33565 6.07575Z" fill="#1F1F22"/>
<mask id="mask3_656_465" style="mask-type:luminance" maskUnits="userSpaceOnUse" x="1" y="1" width="4" height="6">
<path d="M2.33565 6.07575C2.0606 6.07575 1.83765 5.85274 1.83765 5.57774V3.24208C1.83765 2.50065 2.44083 1.89746 3.18227 1.89746H4.28287C4.55792 1.89746 4.78087 2.12047 4.78087 2.39547C4.78087 2.67047 4.55792 2.89348 4.28287 2.89348H3.18227C2.99004 2.89348 2.83366 3.0499 2.83366 3.24208V5.57774C2.83366 5.85274 2.6107 6.07575 2.33565 6.07575Z" fill="white"/>
</mask>
<g mask="url(#mask3_656_465)">
<path d="M2.33565 4.07575C3.1653 4.07575 3.83765 4.7483 3.83765 5.57774H-0.162354C-0.162354 6.95718 0.955905 8.07575 2.33565 8.07575V4.07575ZM3.83765 5.57774V3.24208H-0.162354V5.57774H3.83765ZM3.83765 3.24208C3.83765 3.60522 3.5454 3.89746 3.18227 3.89746V-0.102539C1.33626 -0.102539 -0.162354 1.39608 -0.162354 3.24208H3.83765ZM3.18227 3.89746H4.28287V-0.102539H3.18227V3.89746ZM4.28287 3.89746C3.45322 3.89746 2.78087 3.22491 2.78087 2.39547H6.78087C6.78087 1.01603 5.66262 -0.102539 4.28287 -0.102539V3.89746ZM2.78087 2.39547C2.78087 1.56603 3.45322 0.893477 4.28287 0.893477V4.89348C5.66262 4.89348 6.78087 3.77491 6.78087 2.39547H2.78087ZM4.28287 0.893477H3.18227V4.89348H4.28287V0.893477ZM3.18227 0.893477C1.88528 0.893477 0.833663 1.94552 0.833663 3.24208H4.83366C4.83366 4.15428 4.09479 4.89348 3.18227 4.89348V0.893477ZM0.833663 3.24208V5.57774H4.83366V3.24208H0.833663ZM0.833663 5.57774C0.833663 4.7483 1.506 4.07575 2.33565 4.07575V8.07575C3.7154 8.07575 4.83366 6.95718 4.83366 5.57774H0.833663Z" fill="#1F1F22"/>
</g>
<path d="M22.2628 11.565H16.232C14.7227 11.565 13.4948 10.3372 13.4948 8.82784V2.79702C13.4948 1.2877 14.7227 0.0598145 16.232 0.0598145H22.2628C23.7721 0.0598145 25 1.2877 25 2.79702V8.82784C25 10.3371 23.7721 11.565 22.2628 11.565ZM16.232 1.05583C15.2719 1.05583 14.4908 1.83696 14.4908 2.79702V8.82784C14.4908 9.7879 15.2719 10.569 16.232 10.569H22.2628C23.2229 10.569 24.004 9.7879 24.004 8.82784V2.79702C24.004 1.83696 23.2229 1.05583 22.2628 1.05583H16.232Z" fill="#1F1F22"/>
<mask id="mask4_656_465" style="mask-type:luminance" maskUnits="userSpaceOnUse" x="13" y="0" width="12" height="12">
<path d="M22.2628 11.565H16.232C14.7227 11.565 13.4948 10.3372 13.4948 8.82784V2.79702C13.4948 1.2877 14.7227 0.0598145 16.232 0.0598145H22.2628C23.7721 0.0598145 25 1.2877 25 2.79702V8.82784C25 10.3371 23.7721 11.565 22.2628 11.565ZM16.232 1.05583C15.2719 1.05583 14.4908 1.83696 14.4908 2.79702V8.82784C14.4908 9.7879 15.2719 10.569 16.232 10.569H22.2628C23.2229 10.569 24.004 9.7879 24.004 8.82784V2.79702C24.004 1.83696 23.2229 1.05583 22.2628 1.05583H16.232Z" fill="white"/>
</mask>
<g mask="url(#mask4_656_465)">
<path d="M22.2628 9.56504H16.232V13.565H22.2628V9.56504ZM16.232 9.56504C15.8272 9.56504 15.4948 9.23259 15.4948 8.82784H11.4948C11.4948 11.4417 13.6181 13.565 16.232 13.565V9.56504ZM15.4948 8.82784V2.79702H11.4948V8.82784H15.4948ZM15.4948 2.79702C15.4948 2.39227 15.8272 2.05981 16.232 2.05981V-1.94019C13.6181 -1.94019 11.4948 0.183138 11.4948 2.79702H15.4948ZM16.232 2.05981H22.2628V-1.94019H16.232V2.05981ZM22.2628 2.05981C22.6676 2.05981 23 2.39227 23 2.79702H27C27 0.183137 24.8767 -1.94019 22.2628 -1.94019V2.05981ZM23 2.79702V8.82784H27V2.79702H23ZM23 8.82784C23 9.23256 22.6675 9.56504 22.2628 9.56504V13.565C24.8767 13.565 27 11.4417 27 8.82784H23ZM16.232 -0.944166C14.1673 -0.944166 12.4908 0.732429 12.4908 2.79702H16.4908C16.4908 2.94149 16.3765 3.05583 16.232 3.05583V-0.944166ZM12.4908 2.79702V8.82784H16.4908V2.79702H12.4908ZM12.4908 8.82784C12.4908 10.8924 14.1673 12.569 16.232 12.569V8.56903C16.3765 8.56903 16.4908 8.68337 16.4908 8.82784H12.4908ZM16.232 12.569H22.2628V8.56903H16.232V12.569ZM22.2628 12.569C24.3275 12.569 26.004 10.8924 26.004 8.82784H22.004C22.004 8.68337 22.1183 8.56903 22.2628 8.56903V12.569ZM26.004 8.82784V2.79702H22.004V8.82784H26.004ZM26.004 2.79702C26.004 0.732426 24.3275 -0.944166 22.2628 -0.944166V3.05583C22.1183 3.05583 22.004 2.94149 22.004 2.79702H26.004ZM22.2628 -0.944166H16.232V3.05583H22.2628V-0.944166Z" fill="#1F1F22"/>
</g>
<path d="M8.76803 24.9403H2.7372C1.22789 24.9403 0 23.7124 0 22.2031V16.1723C0 14.6629 1.22789 13.4351 2.7372 13.4351H8.76803C10.2773 13.4351 11.5052 14.6629 11.5052 16.1723V22.2031C11.5052 23.7124 10.2773 24.9403 8.76803 24.9403ZM2.7372 14.4311C1.77709 14.4311 0.996016 15.2122 0.996016 16.1723V22.2031C0.996016 23.1631 1.77709 23.9443 2.7372 23.9443H8.76803C9.72814 23.9443 10.5092 23.1631 10.5092 22.2031V16.1723C10.5092 15.2122 9.72814 14.4311 8.76803 14.4311H2.7372Z" fill="#1F1F22"/>
<mask id="mask5_656_465" style="mask-type:luminance" maskUnits="userSpaceOnUse" x="0" y="13" width="12" height="12">
<path d="M8.76803 24.9403H2.7372C1.22789 24.9403 0 23.7124 0 22.2031V16.1723C0 14.6629 1.22789 13.4351 2.7372 13.4351H8.76803C10.2773 13.4351 11.5052 14.6629 11.5052 16.1723V22.2031C11.5052 23.7124 10.2773 24.9403 8.76803 24.9403ZM2.7372 14.4311C1.77709 14.4311 0.996016 15.2122 0.996016 16.1723V22.2031C0.996016 23.1631 1.77709 23.9443 2.7372 23.9443H8.76803C9.72814 23.9443 10.5092 23.1631 10.5092 22.2031V16.1723C10.5092 15.2122 9.72814 14.4311 8.76803 14.4311H2.7372Z" fill="white"/>
</mask>
<g mask="url(#mask5_656_465)">
<path d="M8.76803 22.9403H2.7372V26.9403H8.76803V22.9403ZM2.7372 22.9403C2.33246 22.9403 2 22.6078 2 22.2031H-2C-2 24.817 0.12332 26.9403 2.7372 26.9403V22.9403ZM2 22.2031V16.1723H-2V22.2031H2ZM2 16.1723C2 15.7675 2.33246 15.4351 2.7372 15.4351V11.4351C0.123318 11.4351 -2 13.5584 -2 16.1723H2ZM2.7372 15.4351H8.76803V11.4351H2.7372V15.4351ZM8.76803 15.4351C9.17277 15.4351 9.50523 15.7675 9.50523 16.1723H13.5052C13.5052 13.5584 11.3819 11.4351 8.76803 11.4351V15.4351ZM9.50523 16.1723V22.2031H13.5052V16.1723H9.50523ZM9.50523 22.2031C9.50523 22.6078 9.17277 22.9403 8.76803 22.9403V26.9403C11.3819 26.9403 13.5052 24.817 13.5052 22.2031H9.50523ZM2.7372 12.4311C0.672484 12.4311 -1.00398 14.1077 -1.00398 16.1723H2.99602C2.99602 16.3167 2.8817 16.4311 2.7372 16.4311V12.4311ZM-1.00398 16.1723V22.2031H2.99602V16.1723H-1.00398ZM-1.00398 22.2031C-1.00398 24.2677 0.672486 25.9443 2.7372 25.9443V21.9443C2.8817 21.9443 2.99602 22.0586 2.99602 22.2031H-1.00398ZM2.7372 25.9443H8.76803V21.9443H2.7372V25.9443ZM8.76803 25.9443C10.8327 25.9443 12.5092 24.2677 12.5092 22.2031H8.50921C8.50921 22.0586 8.62353 21.9443 8.76803 21.9443V25.9443ZM12.5092 22.2031V16.1723H8.50921V22.2031H12.5092ZM12.5092 16.1723C12.5092 14.1077 10.8327 12.4311 8.76803 12.4311V16.4311C8.62353 16.4311 8.50921 16.3167 8.50921 16.1723H12.5092ZM8.76803 12.4311H2.7372V16.4311H8.76803V12.4311Z" fill="#1F1F22"/>
</g>
<path d="M22.2628 24.9403H16.232C14.7227 24.9403 13.4948 23.7124 13.4948 22.2031V16.1723C13.4948 14.6629 14.7227 13.4351 16.232 13.4351H22.2628C23.7721 13.4351 25 14.6629 25 16.1723V22.2031C25 23.7124 23.7721 24.9403 22.2628 24.9403ZM16.232 14.4311C15.2719 14.4311 14.4908 15.2122 14.4908 16.1723V22.2031C14.4908 23.1631 15.2719 23.9443 16.232 23.9443H22.2628C23.2229 23.9443 24.004 23.1631 24.004 22.2031V16.1723C24.004 15.2122 23.2229 14.4311 22.2628 14.4311H16.232Z" fill="#1F1F22"/>
<mask id="mask6_656_465" style="mask-type:luminance" maskUnits="userSpaceOnUse" x="13" y="13" width="12" height="12">
<path d="M22.2628 24.9403H16.232C14.7227 24.9403 13.4948 23.7124 13.4948 22.2031V16.1723C13.4948 14.6629 14.7227 13.4351 16.232 13.4351H22.2628C23.7721 13.4351 25 14.6629 25 16.1723V22.2031C25 23.7124 23.7721 24.9403 22.2628 24.9403ZM16.232 14.4311C15.2719 14.4311 14.4908 15.2122 14.4908 16.1723V22.2031C14.4908 23.1631 15.2719 23.9443 16.232 23.9443H22.2628C23.2229 23.9443 24.004 23.1631 24.004 22.2031V16.1723C24.004 15.2122 23.2229 14.4311 22.2628 14.4311H16.232Z" fill="white"/>
</mask>
<g mask="url(#mask6_656_465)">
<path d="M22.2628 22.9403H16.232V26.9403H22.2628V22.9403ZM16.232 22.9403C15.8272 22.9403 15.4948 22.6078 15.4948 22.2031H11.4948C11.4948 24.817 13.6181 26.9403 16.232 26.9403V22.9403ZM15.4948 22.2031V16.1723H11.4948V22.2031H15.4948ZM15.4948 16.1723C15.4948 15.7675 15.8272 15.4351 16.232 15.4351V11.4351C13.6181 11.4351 11.4948 13.5584 11.4948 16.1723H15.4948ZM16.232 15.4351H22.2628V11.4351H16.232V15.4351ZM22.2628 15.4351C22.6676 15.4351 23 15.7675 23 16.1723H27C27 13.5584 24.8767 11.4351 22.2628 11.4351V15.4351ZM23 16.1723V22.2031H27V16.1723H23ZM23 22.2031C23 22.6078 22.6676 22.9403 22.2628 22.9403V26.9403C24.8767 26.9403 27 24.817 27 22.2031H23ZM16.232 12.4311C14.1673 12.4311 12.4908 14.1077 12.4908 16.1723H16.4908C16.4908 16.3167 16.3765 16.4311 16.232 16.4311V12.4311ZM12.4908 16.1723V22.2031H16.4908V16.1723H12.4908ZM12.4908 22.2031C12.4908 24.2677 14.1673 25.9443 16.232 25.9443V21.9443C16.3765 21.9443 16.4908 22.0586 16.4908 22.2031H12.4908ZM16.232 25.9443H22.2628V21.9443H16.232V25.9443ZM22.2628 25.9443C24.3275 25.9443 26.004 24.2677 26.004 22.2031H22.004C22.004 22.0586 22.1183 21.9443 22.2628 21.9443V25.9443ZM26.004 22.2031V16.1723H22.004V22.2031H26.004ZM26.004 16.1723C26.004 14.1077 24.3275 12.4311 22.2628 12.4311V16.4311C22.1183 16.4311 22.004 16.3167 22.004 16.1723H26.004ZM22.2628 12.4311H16.232V16.4311H22.2628V12.4311Z" fill="#1F1F22"/>
</g>
</g>
</g>
<defs>
<clipPath id="clip0_656_465">
<rect width="25" height="25" fill="white"/>
</clipPath>
</defs>
</svg>
