<svg width="29" height="26" viewBox="0 0 29 26" fill="none" xmlns="http://www.w3.org/2000/svg">
<path d="M2.75 11.75H27.75C28.0815 11.75 28.3995 11.8817 28.6339 12.1161C28.8683 12.3505 29 12.6685 29 13C29 13.3315 28.8683 13.6495 28.6339 13.8839C28.3995 14.1183 28.0815 14.25 27.75 14.25H2.75C2.41848 14.25 2.10054 14.1183 1.86612 13.8839C1.6317 13.6495 1.5 13.3315 1.5 13C1.5 12.6685 1.6317 12.3505 1.86612 12.1161C2.10054 11.8817 2.41848 11.75 2.75 11.75Z" fill="#004046"/>
<path d="M3.26754 13.0001L13.635 23.3651C13.8698 23.5998 14.0016 23.9182 14.0016 24.2501C14.0016 24.5821 13.8698 24.9004 13.635 25.1351C13.4003 25.3698 13.082 25.5017 12.75 25.5017C12.4181 25.5017 12.0998 25.3698 11.865 25.1351L0.615037 13.8851C0.498629 13.769 0.406272 13.6311 0.343256 13.4792C0.28024 13.3273 0.247803 13.1645 0.247803 13.0001C0.247803 12.8357 0.28024 12.6729 0.343256 12.521C0.406272 12.3692 0.498629 12.2312 0.615037 12.1151L11.865 0.865114C12.0998 0.630397 12.4181 0.498535 12.75 0.498535C13.082 0.498535 13.4003 0.630397 13.635 0.865114C13.8698 1.09983 14.0016 1.41817 14.0016 1.75011C14.0016 2.08205 13.8698 2.4004 13.635 2.63511L3.26754 13.0001Z" fill="#004046"/>
</svg>
