<svg viewBox="0 0 24 24" fill="none" xmlns="http://www.w3.org/2000/svg"><g id="SVGRepo_bgCarrier" stroke-width="0"></g><g id="SVGRepo_tracerCarrier" stroke-linecap="round" stroke-linejoin="round"></g><g id="SVGRepo_iconCarrier"> <path opacity="0.1" d="M12 9C10.3431 9 9 10.3431 9 12C9 13.6569 10.3431 15 12 15C13.6569 15 15 13.6569 15 12C15 10.3431 13.6569 9 12 9Z" fill="#04152d"></path> <path d="M12 9C10.3431 9 9 10.3431 9 12C9 13.6569 10.3431 15 12 15C13.6569 15 15 13.6569 15 12C15 10.3431 13.6569 9 12 9Z" stroke="#04152d" stroke-width="2"></path> <path d="M3 12L9 12" stroke="#04152d" stroke-width="2" stroke-linecap="round" stroke-linejoin="round"></path> <path d="M15 12L21 12" stroke="#04152d" stroke-width="2" stroke-linecap="round" stroke-linejoin="round"></path> </g></svg>