<svg width="8" height="40" viewBox="0 0 8 40" fill="none" xmlns="http://www.w3.org/2000/svg">
<path d="M7.75 20C7.75 20.9946 7.35491 21.9484 6.65165 22.6517C5.94839 23.3549 4.99456 23.75 4 23.75C3.00544 23.75 2.05161 23.3549 1.34835 22.6517C0.645088 21.9484 0.25 20.9946 0.25 20C0.25 19.0054 0.645088 18.0516 1.34835 17.3483C2.05161 16.6451 3.00544 16.25 4 16.25C4.99456 16.25 5.94839 16.6451 6.65165 17.3483C7.35491 18.0516 7.75 19.0054 7.75 20ZM7.75 36.25C7.75 37.2446 7.35491 38.1984 6.65165 38.9017C5.94839 39.6049 4.99456 40 4 40C3.00544 40 2.05161 39.6049 1.34835 38.9017C0.645088 38.1984 0.25 37.2446 0.25 36.25C0.25 35.2554 0.645088 34.3016 1.34835 33.5983C2.05161 32.8951 3.00544 32.5 4 32.5C4.99456 32.5 5.94839 32.8951 6.65165 33.5983C7.35491 34.3016 7.75 35.2554 7.75 36.25ZM7.75 3.75C7.75 4.74456 7.35491 5.69839 6.65165 6.40165C5.94839 7.10491 4.99456 7.5 4 7.5C3.00544 7.5 2.05161 7.10491 1.34835 6.40165C0.645088 5.69839 0.25 4.74456 0.25 3.75C0.25 2.75544 0.645088 1.80161 1.34835 1.09835C2.05161 0.395088 3.00544 0 4 0C4.99456 0 5.94839 0.395088 6.65165 1.09835C7.35491 1.80161 7.75 2.75544 7.75 3.75Z" fill="#004046"/>
</svg>
