<svg width="40" height="35" viewBox="0 0 40 35" fill="none" xmlns="http://www.w3.org/2000/svg">
<path d="M19.9998 23.7502C25.1693 23.7502 29.3749 18.4233 29.3749 11.8751C29.3749 5.32692 25.1693 0 19.9998 0C14.8304 0 10.6248 5.32692 10.6248 11.8751C10.6248 18.4233 14.8304 23.7502 19.9998 23.7502ZM19.9998 2.50002C23.7267 2.50002 26.8749 6.79318 26.8749 11.8751C26.8749 16.957 23.7267 21.2502 19.9998 21.2502C16.2729 21.2502 13.1248 16.957 13.1248 11.8751C13.1248 6.79318 16.2729 2.50002 19.9998 2.50002Z" fill="#004046"/>
<path d="M2.56409 25.8546L0.0640669 33.3547C-0.0628092 33.7359 0.000941333 34.1547 0.235943 34.481C0.47032 34.8072 0.847824 35.0003 1.2497 35.0003H38.75C39.1519 35.0003 39.5294 34.8072 39.7638 34.481C39.9988 34.1553 40.0632 33.7366 39.9357 33.3547L37.4356 25.8546C37.305 25.4634 36.99 25.1621 36.5931 25.0484L27.8431 22.5483C27.5418 22.4615 27.2205 22.4921 26.9405 22.6321L19.9999 26.1028L13.0592 22.6321C12.7792 22.4921 12.4579 22.4621 12.1567 22.5483L3.4066 25.0484C3.00909 25.1621 2.69471 25.4634 2.56409 25.8546ZM12.376 25.0859L19.4411 28.6184C19.7924 28.794 20.208 28.794 20.5592 28.6184L27.6243 25.0859L35.2731 27.2709L37.0163 32.5003H2.98347L4.72661 27.2709L12.376 25.0859Z" fill="#004046"/>
</svg>
