<svg width="80" height="80" viewBox="0 0 80 80" fill="none" xmlns="http://www.w3.org/2000/svg">
<path fill-rule="evenodd" clip-rule="evenodd" d="M76.5792 6.11208H63.3664L64.752 8.51048C65.0512 9.03048 64.872 9.69288 64.352 9.99208L48.4208 19.1905C48.0208 19.4209 47.5344 19.3665 47.1968 19.0913L39.5712 13.3009L13.7504 31.0865L38.3136 19.0673C38.7168 18.8705 39.1808 18.9457 39.5008 19.2209L47.4672 26.1009L67.1088 14.7601C67.6272 14.4625 68.288 14.6401 68.5872 15.1569L68.5888 15.1553L69.9728 17.5537L73.2768 11.8321L73.2752 11.8305L76.5792 6.11208ZM69.9744 3.94088H78.4C78.6048 3.92968 78.8144 3.97448 79.0048 4.08488C79.5248 4.38568 79.7008 5.05128 79.4 5.56968L75.1568 12.9185L75.1552 12.9169L70.9472 20.2065C70.856 20.3921 70.7104 20.5521 70.5184 20.6641C69.9984 20.9649 69.3344 20.7873 69.0336 20.2689L67.2512 17.1825L47.936 28.3361C47.5408 28.5953 47.0064 28.5729 46.632 28.2481L38.624 21.3329L1.61118 39.4417C1.12958 39.7073 0.51358 39.5697 0.19358 39.1073C-0.14722 38.6145 -0.0240199 37.9377 0.47038 37.5969L38.9824 11.0689L38.984 11.0705C39.3584 10.8113 39.872 10.8081 40.256 11.0993L47.9616 16.9505L62.3296 8.65448L60.5648 5.59848C60.4608 5.43208 60.4016 5.23688 60.4016 5.02728C60.4016 4.42728 60.888 3.94248 61.4864 3.94248L69.9744 3.94088ZM2.16158 50.2561H9.20638C9.80798 50.2561 10.296 50.7441 10.296 51.3457V64.8033C10.296 65.4049 9.80798 65.8929 9.20638 65.8929H2.16158C1.55998 65.8929 1.07198 65.4049 1.07198 64.8033V51.3457C1.07198 50.7441 1.55998 50.2561 2.16158 50.2561ZM8.11678 52.4353H3.25118V63.7137H8.11678V52.4353ZM36.2096 35.0513H31.344V63.7121H36.2096V35.0513ZM30.2544 32.8721C29.6528 32.8721 29.1648 33.3601 29.1648 33.9617V64.8017C29.1648 65.4033 29.6528 65.8913 30.2544 65.8913H37.2992C37.9008 65.8913 38.3888 65.4033 38.3888 64.8017V33.9617C38.3888 33.3601 37.9008 32.8721 37.2992 32.8721H30.2544ZM16.208 41.9713H23.2528C23.8544 41.9713 24.3424 42.4593 24.3424 43.0609V64.8017C24.3424 65.4033 23.8544 65.8913 23.2528 65.8913H16.208C15.6064 65.8913 15.1184 65.4033 15.1184 64.8017V43.0609C15.1184 42.4593 15.6064 41.9713 16.208 41.9713ZM22.1632 44.1505H17.2976V63.7121H22.1632V44.1505ZM2.16158 69.5057H78.9088C79.5104 69.5057 79.9984 69.9937 79.9984 70.5953V74.9713C79.9984 75.5729 79.5104 76.0609 78.9088 76.0609H2.16158C1.55998 76.0609 1.07198 75.5729 1.07198 74.9713V70.5953C1.07198 69.9937 1.55998 69.5057 2.16158 69.5057ZM77.8192 71.6849H3.25118V73.8817H77.8192V71.6849ZM62.8096 41.0865C63.1104 40.5665 63.776 40.3905 64.2944 40.6913C64.8144 40.9921 64.9904 41.6577 64.6896 42.1761L61.7568 47.2545C61.456 47.7745 60.7904 47.9505 60.272 47.6497L52.6112 43.2257C52.0912 42.9249 51.9152 42.2593 52.216 41.7409C52.5168 41.2209 53.1824 41.0449 53.7008 41.3457L60.4192 45.2241L62.8096 41.0865ZM61.9072 33.5969V34.5937C61.9072 35.1953 61.4192 35.6833 60.8176 35.6833C60.216 35.6833 59.728 35.1953 59.728 34.5937V33.5969C58.12 33.7281 56.5936 34.1505 55.2 34.8081L55.6976 35.6705C55.9984 36.1905 55.8208 36.8545 55.3024 37.1553C54.7824 37.4561 54.1184 37.2785 53.8176 36.7601L53.3184 35.8961C52.672 36.3457 52.0672 36.8513 51.512 37.4065C50.9568 37.9617 50.4512 38.5665 50.0016 39.2145L50.8624 39.7121C51.3824 40.0113 51.5616 40.6737 51.2624 41.1937C50.9632 41.7137 50.3008 41.8929 49.7808 41.5937L48.9152 41.0945C48.256 42.4881 47.8336 44.0177 47.7024 45.6289H48.6992C49.2992 45.6289 49.784 46.1153 49.784 46.7137C49.784 47.3121 49.2976 47.7985 48.6992 47.7985H47.7024C47.8336 49.4081 48.2544 50.9361 48.9136 52.3297L49.776 51.8321C50.296 51.5313 50.96 51.7089 51.2608 52.2273C51.5616 52.7473 51.384 53.4113 50.8656 53.7121L50.0016 54.2113C50.4512 54.8577 50.9568 55.4625 51.512 56.0177C52.0672 56.5729 52.672 57.0785 53.32 57.5281L53.8176 56.6673C54.1168 56.1473 54.7792 55.9681 55.2992 56.2673C55.8192 56.5665 55.9984 57.2289 55.6992 57.7489L55.2 58.6145C56.5936 59.2737 58.12 59.6945 59.7296 59.8273V58.8305C59.7296 58.2289 60.2176 57.7409 60.8192 57.7409C61.4208 57.7409 61.9088 58.2289 61.9088 58.8305V59.8273C63.5168 59.6961 65.0432 59.2737 66.4368 58.6161L65.9392 57.7537C65.6384 57.2337 65.816 56.5697 66.3344 56.2689C66.8544 55.9681 67.5184 56.1457 67.8192 56.6641L68.3184 57.5281C68.9648 57.0785 69.5696 56.5729 70.1248 56.0177C70.68 55.4625 71.1856 54.8577 71.6352 54.2097L70.7744 53.7121C70.2544 53.4129 70.0752 52.7505 70.3744 52.2305C70.6736 51.7105 71.336 51.5313 71.856 51.8305L72.7216 52.3297C73.3808 50.9361 73.8032 49.4065 73.9344 47.7953H72.9376C72.3376 47.7953 71.8528 47.3089 71.8528 46.7105C71.8528 46.1121 72.3392 45.6257 72.9376 45.6257H73.9344C73.8032 44.0161 73.3824 42.4881 72.7232 41.0945L71.8608 41.5921C71.3408 41.8929 70.6768 41.7153 70.376 41.1969C70.0752 40.6769 70.2528 40.0129 70.7712 39.7121L71.6352 39.2129C71.1856 38.5665 70.68 37.9617 70.1248 37.4065C69.5696 36.8513 68.9648 36.3457 68.3168 35.8961L67.8192 36.7569C67.52 37.2769 66.8576 37.4561 66.3376 37.1569C65.8176 36.8577 65.6384 36.1953 65.9376 35.6753L66.4368 34.8097C65.0432 34.1505 63.5152 33.7281 61.9072 33.5969ZM49.9712 35.8657C47.1952 38.6417 45.4784 42.4753 45.4784 46.7105C45.4784 50.9457 47.1952 54.7809 49.9712 57.5553C52.7472 60.3313 56.5808 62.0481 60.816 62.0481C65.0512 62.0481 68.8864 60.3313 71.6608 57.5553C74.4368 54.7793 76.1536 50.9457 76.1536 46.7105C76.1536 42.4753 74.4368 38.6401 71.6608 35.8657C68.8848 33.0897 65.0512 31.3729 60.816 31.3729C56.5824 31.3729 52.7472 33.0897 49.9712 35.8657ZM60.8176 29.7089C65.512 29.7089 69.7632 31.6113 72.84 34.6881C75.9168 37.7649 77.8192 42.0161 77.8192 46.7105C77.8192 51.4049 75.9168 55.6561 72.84 58.7329C69.7632 61.8097 65.512 63.7121 60.8176 63.7121C56.1232 63.7121 51.872 61.8097 48.7952 58.7329C45.7184 55.6561 43.816 51.4049 43.816 46.7105C43.816 42.0161 45.7184 37.7649 48.7952 34.6881C51.872 31.6113 56.1216 29.7089 60.8176 29.7089ZM47.2544 33.1473C50.7248 29.6769 55.5216 27.5297 60.8176 27.5297C66.1136 27.5297 70.9088 29.6769 74.3808 33.1473C77.8512 36.6177 79.9984 41.4145 79.9984 46.7105C79.9984 52.0065 77.8512 56.8017 74.3808 60.2737C70.9104 63.7441 66.1136 65.8913 60.8176 65.8913C55.5216 65.8913 50.7264 63.7441 47.2544 60.2737C43.784 56.8033 41.6368 52.0065 41.6368 46.7105C41.6352 41.4145 43.7824 36.6193 47.2544 33.1473Z" fill="#C76F4E"/>
</svg>
