<svg width="80" height="80" viewBox="0 0 80 80" fill="none" xmlns="http://www.w3.org/2000/svg">
<g clip-path="url(#clip0_586_480)">
<path d="M60.6507 39.3641C60.1428 38.5325 59.4668 37.8162 58.6659 37.2613C57.865 36.7063 56.957 36.3248 56 36.1414V13.3334C55.9979 11.5659 55.2948 9.87146 54.045 8.62168C52.7953 7.37189 51.1008 6.66883 49.3333 6.66672H38.296C38.0638 6.26266 37.7295 5.92677 37.3265 5.69275C36.9235 5.45872 36.466 5.33479 36 5.33338H34.212C33.6617 3.77167 32.6404 2.41917 31.289 1.46245C29.9375 0.505737 28.3225 -0.00805664 26.6667 -0.00805664C25.0108 -0.00805664 23.3958 0.505737 22.0444 1.46245C20.6929 2.41917 19.6716 3.77167 19.1213 5.33338H17.3333C16.8673 5.33479 16.4099 5.45872 16.0069 5.69275C15.6039 5.92677 15.2695 6.26266 15.0373 6.66672H6.66667C4.89921 6.66883 3.20474 7.37189 1.95496 8.62168C0.705176 9.87146 0.00211714 11.5659 0 13.3334L0 69.3334C0.00211714 71.1008 0.705176 72.7953 1.95496 74.0451C3.20474 75.2949 4.89921 75.9979 6.66667 76.0001H30.0787C30.14 76.1254 30.1893 76.2547 30.2587 76.3774C30.8602 77.4792 31.7487 78.3977 32.8299 79.0354C33.9111 79.6732 35.1447 80.0065 36.4 80.0001H72.9467C74.2007 80.0048 75.4327 79.6706 76.5124 79.0326C77.592 78.3947 78.4792 77.4768 79.08 76.3761C79.7146 75.2589 80.0354 73.9909 80.0085 72.7063C79.9815 71.4217 79.6077 70.1683 78.9267 69.0787L60.6507 39.3641ZM53.3333 13.3334V36.1414C52.3751 36.3236 51.4663 36.7067 50.6667 37.2654V14.6667C50.6667 13.9595 50.3857 13.2812 49.8856 12.7811C49.3855 12.281 48.7072 12 48 12H38.6667V9.33338H49.3333C50.3942 9.33338 51.4116 9.75481 52.1618 10.505C52.9119 11.2551 53.3333 12.2725 53.3333 13.3334ZM17.3333 8.00005H20.1333C20.4409 8.00042 20.7392 7.89442 20.9776 7.70002C21.216 7.50562 21.3798 7.23477 21.4413 6.93338C21.6874 5.72917 22.3419 4.64692 23.294 3.86968C24.2462 3.09244 25.4376 2.66791 26.6667 2.66791C27.8958 2.66791 29.0871 3.09244 30.0393 3.86968C30.9914 4.64692 31.6459 5.72917 31.892 6.93338C31.9535 7.23477 32.1174 7.50562 32.3557 7.70002C32.5941 7.89442 32.8924 8.00042 33.2 8.00005H36V13.3334H17.3333V8.00005ZM36 16.0001C36.466 15.9986 36.9235 15.8747 37.3265 15.6407C37.7295 15.4067 38.0638 15.0708 38.296 14.6667H48V40.476L31.0667 68.0001H8V14.6667H15.0373C15.2695 15.0708 15.6039 15.4067 16.0069 15.6407C16.4099 15.8747 16.8673 15.9986 17.3333 16.0001H36ZM6.66667 73.3334C5.6058 73.3334 4.58839 72.912 3.83824 72.1618C3.08809 71.4117 2.66667 70.3943 2.66667 69.3334V13.3334C2.66667 12.2725 3.08809 11.2551 3.83824 10.505C4.58839 9.75481 5.6058 9.33338 6.66667 9.33338H14.6667V12H8C7.29276 12 6.61448 12.281 6.11438 12.7811C5.61429 13.2812 5.33333 13.9595 5.33333 14.6667V68.0001C5.33333 68.7073 5.61429 69.3856 6.11438 69.8857C6.61448 70.3858 7.29276 70.6667 8 70.6667H29.684C29.4056 71.5265 29.2947 72.4318 29.3573 73.3334H6.66667ZM76.748 75.0761C76.3756 75.7605 75.8251 76.3316 75.1548 76.729C74.4845 77.1263 73.7192 77.3352 72.94 77.3334H36.4C35.6211 77.3353 34.8561 77.1267 34.186 76.7296C33.5159 76.3325 32.9656 75.7616 32.5933 75.0774C32.1925 74.3728 31.9896 73.5728 32.0063 72.7623C32.0229 71.9518 32.2585 71.1609 32.688 70.4734L50.9547 40.7627C51.341 40.1235 51.8858 39.5948 52.5363 39.2278C53.1868 38.8608 53.9211 38.668 54.668 38.668C55.4149 38.668 56.1492 38.8608 56.7997 39.2278C57.4503 39.5948 57.995 40.1235 58.3813 40.7627L76.648 70.4761C77.0778 71.1626 77.3141 71.9525 77.3317 72.7623C77.3493 73.5721 77.1476 74.3715 76.748 75.0761Z" fill="#C76F4E"/>
<path d="M54.6667 44C53.6058 44 52.5884 44.4214 51.8383 45.1716C51.0881 45.9217 50.6667 46.9391 50.6667 48V60C50.6667 61.0609 51.0881 62.0783 51.8383 62.8284C52.5884 63.5786 53.6058 64 54.6667 64C55.7276 64 56.745 63.5786 57.4951 62.8284C58.2453 62.0783 58.6667 61.0609 58.6667 60V48C58.6667 46.9391 58.2453 45.9217 57.4951 45.1716C56.745 44.4214 55.7276 44 54.6667 44ZM56 60C56 60.3536 55.8595 60.6928 55.6095 60.9428C55.3594 61.1929 55.0203 61.3333 54.6667 61.3333C54.3131 61.3333 53.9739 61.1929 53.7239 60.9428C53.4738 60.6928 53.3334 60.3536 53.3334 60V48C53.3334 47.6464 53.4738 47.3072 53.7239 47.0572C53.9739 46.8071 54.3131 46.6667 54.6667 46.6667C55.0203 46.6667 55.3594 46.8071 55.6095 47.0572C55.8595 47.3072 56 47.6464 56 48V60Z" fill="#C76F4E"/>
<path d="M54.6667 66.6667C53.8756 66.6667 53.1022 66.9013 52.4444 67.3409C51.7866 67.7804 51.2739 68.4051 50.9712 69.136C50.6684 69.8669 50.5892 70.6712 50.7435 71.4471C50.8979 72.223 51.2789 72.9358 51.8383 73.4952C52.3977 74.0546 53.1104 74.4355 53.8863 74.5899C54.6623 74.7442 55.4665 74.665 56.1974 74.3623C56.9283 74.0595 57.553 73.5468 57.9926 72.889C58.4321 72.2312 58.6667 71.4579 58.6667 70.6667C58.6667 69.6059 58.2453 68.5885 57.4951 67.8383C56.745 67.0882 55.7276 66.6667 54.6667 66.6667ZM54.6667 72.0001C54.403 72.0001 54.1452 71.9219 53.9259 71.7754C53.7067 71.6289 53.5358 71.4206 53.4349 71.177C53.3339 70.9334 53.3075 70.6653 53.359 70.4066C53.4104 70.148 53.5374 69.9104 53.7239 69.7239C53.9103 69.5375 54.1479 69.4105 54.4066 69.359C54.6652 69.3076 54.9333 69.334 55.1769 69.4349C55.4206 69.5358 55.6288 69.7067 55.7753 69.926C55.9218 70.1453 56 70.403 56 70.6667C56 71.0204 55.8595 71.3595 55.6095 71.6096C55.3595 71.8596 55.0203 72.0001 54.6667 72.0001Z" fill="#C76F4E"/>
<path d="M26.6666 25.3334H44C44.3536 25.3334 44.6927 25.1929 44.9428 24.9429C45.1928 24.6928 45.3333 24.3537 45.3333 24.0001C45.3333 23.6465 45.1928 23.3073 44.9428 23.0573C44.6927 22.8072 44.3536 22.6667 44 22.6667H26.6666C26.313 22.6667 25.9739 22.8072 25.7238 23.0573C25.4738 23.3073 25.3333 23.6465 25.3333 24.0001C25.3333 24.3537 25.4738 24.6928 25.7238 24.9429C25.9739 25.1929 26.313 25.3334 26.6666 25.3334Z" fill="#C76F4E"/>
<path d="M26.6666 30.6667H34.6666C35.0203 30.6667 35.3594 30.5262 35.6095 30.2761C35.8595 30.0261 36 29.687 36 29.3333C36 28.9797 35.8595 28.6406 35.6095 28.3905C35.3594 28.1405 35.0203 28 34.6666 28H26.6666C26.313 28 25.9739 28.1405 25.7238 28.3905C25.4738 28.6406 25.3333 28.9797 25.3333 29.3333C25.3333 29.687 25.4738 30.0261 25.7238 30.2761C25.9739 30.5262 26.313 30.6667 26.6666 30.6667Z" fill="#C76F4E"/>
<path d="M26.6666 39.9999H44C44.3536 39.9999 44.6927 39.8594 44.9428 39.6094C45.1928 39.3593 45.3333 39.0202 45.3333 38.6666C45.3333 38.313 45.1928 37.9738 44.9428 37.7238C44.6927 37.4737 44.3536 37.3333 44 37.3333H26.6666C26.313 37.3333 25.9739 37.4737 25.7238 37.7238C25.4738 37.9738 25.3333 38.313 25.3333 38.6666C25.3333 39.0202 25.4738 39.3593 25.7238 39.6094C25.9739 39.8594 26.313 39.9999 26.6666 39.9999Z" fill="#C76F4E"/>
<path d="M26.6666 45.3334H34.6666C35.0203 45.3334 35.3594 45.1929 35.6095 44.9429C35.8595 44.6928 36 44.3537 36 44.0001C36 43.6465 35.8595 43.3073 35.6095 43.0573C35.3594 42.8072 35.0203 42.6667 34.6666 42.6667H26.6666C26.313 42.6667 25.9739 42.8072 25.7238 43.0573C25.4738 43.3073 25.3333 43.6465 25.3333 44.0001C25.3333 44.3537 25.4738 44.6928 25.7238 44.9429C25.9739 45.1929 26.313 45.3334 26.6666 45.3334Z" fill="#C76F4E"/>
<path d="M26.6666 54.6667H36C36.3536 54.6667 36.6927 54.5262 36.9428 54.2761C37.1928 54.0261 37.3333 53.687 37.3333 53.3333C37.3333 52.9797 37.1928 52.6406 36.9428 52.3905C36.6927 52.1405 36.3536 52 36 52H26.6666C26.313 52 25.9739 52.1405 25.7238 52.3905C25.4738 52.6406 25.3333 52.9797 25.3333 53.3333C25.3333 53.687 25.4738 54.0261 25.7238 54.2761C25.9739 54.5262 26.313 54.6667 26.6666 54.6667Z" fill="#C76F4E"/>
<path d="M26.6666 59.9999H32C32.3536 59.9999 32.6927 59.8594 32.9428 59.6094C33.1928 59.3593 33.3333 59.0202 33.3333 58.6666C33.3333 58.313 33.1928 57.9738 32.9428 57.7238C32.6927 57.4737 32.3536 57.3333 32 57.3333H26.6666C26.313 57.3333 25.9739 57.4737 25.7238 57.7238C25.4738 57.9738 25.3333 58.313 25.3333 58.6666C25.3333 59.0202 25.4738 59.3593 25.7238 59.6094C25.9739 59.8594 26.313 59.9999 26.6666 59.9999Z" fill="#C76F4E"/>
<path d="M12.3907 28.3907C12.1407 28.6408 12.0003 28.9798 12.0003 29.3334C12.0003 29.687 12.1407 30.026 12.3907 30.2761L15.0574 32.9427C15.3073 33.1928 15.6464 33.3333 16 33.3334C16.0715 33.3336 16.1429 33.3278 16.2134 33.3161C16.4221 33.2824 16.6198 33.1995 16.7902 33.0743C16.9606 32.9491 17.0988 32.7852 17.1934 32.5961L22.5267 21.9294C22.605 21.7727 22.6516 21.6021 22.6639 21.4274C22.6763 21.2526 22.6541 21.0772 22.5986 20.911C22.5431 20.7449 22.4555 20.5913 22.3407 20.459C22.2258 20.3267 22.0861 20.2183 21.9294 20.1401C21.7726 20.0618 21.6021 20.0152 21.4273 20.0028C21.2526 19.9905 21.0771 20.0127 20.911 20.0682C20.7448 20.1236 20.5912 20.2113 20.4589 20.3261C20.3267 20.4409 20.2183 20.5807 20.14 20.7374L15.6347 29.7494L14.276 28.3907C14.026 28.1408 13.6869 28.0004 13.3334 28.0004C12.9798 28.0004 12.6407 28.1408 12.3907 28.3907Z" fill="#C76F4E"/>
<path d="M21.9293 34.8068C21.7726 34.7284 21.602 34.6817 21.4273 34.6693C21.2525 34.657 21.077 34.6792 20.9109 34.7346C20.7447 34.7901 20.5911 34.8778 20.4588 34.9927C20.3265 35.1075 20.2182 35.2473 20.14 35.4041L15.6346 44.4161L14.276 43.0574C14.0245 42.8145 13.6877 42.6802 13.3381 42.6832C12.9885 42.6862 12.6541 42.8265 12.4069 43.0737C12.1597 43.3209 12.0194 43.6553 12.0164 44.0049C12.0134 44.3545 12.1478 44.6913 12.3906 44.9428L15.0573 47.6094C15.3073 47.8595 15.6464 48 16 48.0001C16.0714 48.0003 16.1428 47.9945 16.2133 47.9828C16.422 47.9491 16.6198 47.8662 16.7902 47.741C16.9606 47.6158 17.0987 47.4519 17.1933 47.2628L22.5266 36.5961C22.605 36.4394 22.6517 36.2688 22.6641 36.094C22.6764 35.9193 22.6542 35.7438 22.5988 35.5776C22.5433 35.4115 22.4556 35.2579 22.3408 35.1256C22.2259 34.9933 22.0861 34.885 21.9293 34.8068Z" fill="#C76F4E"/>
<path d="M21.9293 49.4667C21.7726 49.3883 21.602 49.3416 21.4273 49.3293C21.2525 49.3169 21.077 49.3391 20.9109 49.3945C20.7447 49.45 20.5911 49.5377 20.4588 49.6526C20.3265 49.7674 20.2182 49.9072 20.14 50.064L15.6346 59.076L14.276 57.7173C14.0245 57.4745 13.6877 57.3401 13.3381 57.3431C12.9885 57.3461 12.6541 57.4864 12.4069 57.7336C12.1597 57.9808 12.0194 58.3152 12.0164 58.6648C12.0134 59.0144 12.1478 59.3512 12.3906 59.6027L15.0573 62.2693C15.1805 62.3944 15.3273 62.4938 15.489 62.562C15.6508 62.6302 15.8244 62.6658 16 62.6667C16.0714 62.6669 16.1428 62.6611 16.2133 62.6493C16.422 62.6156 16.6198 62.5328 16.7902 62.4076C16.9606 62.2824 17.0987 62.1185 17.1933 61.9293L22.5266 51.2627C22.606 51.1057 22.6535 50.9345 22.6665 50.759C22.6794 50.5835 22.6575 50.4073 22.6019 50.2403C22.5464 50.0733 22.4584 49.919 22.3429 49.7863C22.2275 49.6535 22.0869 49.5449 21.9293 49.4667Z" fill="#C76F4E"/>
</g>
<defs>
<clipPath id="clip0_586_480">
<rect width="80" height="80" fill="white"/>
</clipPath>
</defs>
</svg>
