<svg width="80" height="80" viewBox="0 0 80 80" fill="none" xmlns="http://www.w3.org/2000/svg">
<g clip-path="url(#clip0_586_456)">
<path d="M73.3333 5.33325H6.66667C2.98633 5.33781 0.0045573 8.31958 0 11.9999V57.3333C0.0045573 61.0136 2.98633 63.9954 6.66667 63.9999H33.3333V61.3333H6.66667C4.45768 61.3333 2.66667 59.5422 2.66667 57.3333V11.9999C2.66667 9.79093 4.45768 7.99992 6.66667 7.99992H73.3333C75.5423 7.99992 77.3333 9.79093 77.3333 11.9999V57.3333C77.3333 59.5422 75.5423 61.3333 73.3333 61.3333H72V63.9999H73.3333C77.0137 63.9954 79.9954 61.0136 80 57.3333V11.9999C79.9954 8.31958 77.0137 5.33781 73.3333 5.33325Z" fill="#C76F4E"/>
<path d="M73.3333 54.6667V12.0001C73.3333 11.2638 72.7363 10.6667 72 10.6667H7.99996C7.26363 10.6667 6.66663 11.2638 6.66663 12.0001V57.3334C6.66663 58.0697 7.26363 58.6667 7.99996 58.6667H42.6666V56.0001H9.33329V13.3334H70.6666V54.6667H73.3333Z" fill="#C76F4E"/>
<path d="M12 16H14.6667V18.6667H12V16Z" fill="#C76F4E"/>
<path d="M12 21.3333H17.3333V23.9999H12V21.3333Z" fill="#C76F4E"/>
<path d="M12 26.6667H17.3333V29.3334H12V26.6667Z" fill="#C76F4E"/>
<path d="M12 32H17.3333V34.6667H12V32Z" fill="#C76F4E"/>
<path d="M12 37.3333H17.3333V39.9999H12V37.3333Z" fill="#C76F4E"/>
<path d="M12 42.6667H17.3333V45.3334H12V42.6667Z" fill="#C76F4E"/>
<path d="M12 48H17.3333V50.6667H12V48Z" fill="#C76F4E"/>
<path d="M68 37.3333H28V33.8853L30.4603 31.425L32.224 34.0735C32.4441 34.4075 32.8021 34.6249 33.1999 34.6666H33.3334C33.6869 34.6666 34.0261 34.526 34.2761 34.276L40 28.552L43.0573 31.6093C43.3197 31.8775 43.6856 32.0195 44.0599 31.9986C44.4343 31.981 44.7845 31.8079 45.0254 31.5214L50.6667 24.7493L56.308 31.5214C56.5489 31.8079 56.8991 31.981 57.2735 31.9986C57.6485 32.0208 58.0144 31.8788 58.2761 31.6093L61.3334 28.552L63.0573 30.276C63.3275 30.5546 63.7084 30.6965 64.0944 30.6627C64.4805 30.634 64.8353 30.4394 65.0664 30.1295L69.0664 24.7961L66.9336 23.1959L63.8562 27.3L62.2761 25.72C61.7553 25.1991 60.9115 25.1991 60.3907 25.72L57.4226 28.6881L51.6895 21.8079C51.4271 21.5181 51.0547 21.3528 50.6641 21.3528C50.2735 21.3528 49.9011 21.5181 49.6387 21.8079L43.9056 28.6881L40.9375 25.72C40.4167 25.1991 39.573 25.1991 39.0521 25.72L33.5345 31.2375L31.7709 28.5891C31.5489 28.2571 31.1901 28.0416 30.7924 28.0025C30.3952 27.9635 30.0013 28.1041 29.7188 28.3866L28 30.1145V21.3333H25.3334V38.6666C25.3334 39.4029 25.9304 39.9999 26.6667 39.9999H68V37.3333Z" fill="#C76F4E"/>
<path d="M25.3334 16H33.3334V18.6667H25.3334V16Z" fill="#C76F4E"/>
<path d="M36 16H38.6667V18.6667H36V16Z" fill="#C76F4E"/>
<path d="M25.3334 42.6667H30.6667V45.3334H25.3334V42.6667Z" fill="#C76F4E"/>
<path d="M33.3334 42.6667H36V45.3334H33.3334V42.6667Z" fill="#C76F4E"/>
<path d="M25.3334 48H30.6667V50.6667H25.3334V48Z" fill="#C76F4E"/>
<path d="M33.3334 48H36V50.6667H33.3334V48Z" fill="#C76F4E"/>
<path d="M41.3334 42.6667H44V45.3334H41.3334V42.6667Z" fill="#C76F4E"/>
<path d="M57.3334 42.6667H62.6667V45.3334H57.3334V42.6667Z" fill="#C76F4E"/>
<path d="M65.3334 42.6667H68V45.3334H65.3334V42.6667Z" fill="#C76F4E"/>
<path d="M57.3334 48H62.6667V50.6667H57.3334V48Z" fill="#C76F4E"/>
<path d="M65.3334 48H68V50.6667H65.3334V48Z" fill="#C76F4E"/>
<path d="M66.0001 54.72C64.8366 54.5273 63.6472 54.8554 62.7481 55.6184C62.7214 55.6399 62.696 55.6627 62.6693 55.6868C61.1524 54.3248 58.8529 54.3248 57.336 55.6868C56.2325 54.7415 54.7162 54.4407 53.336 54.8932V48.1425C53.3614 46.1523 51.9571 44.4303 50.0027 44.0533C48.8412 43.856 47.6511 44.1809 46.7514 44.942C45.851 45.7024 45.3327 46.8215 45.3334 47.9999V64.3118L41.795 62.1894C40.7142 61.5364 39.3744 61.4863 38.2481 62.0559L38.0372 62.1601C36.8809 62.7389 36.1127 63.8814 36.0118 65.1705C35.9109 66.4596 36.4922 67.7076 37.5443 68.4602L45.892 74.4212C46.1185 74.582 46.3894 74.6672 46.6667 74.6666H68.0001C68.7364 74.6666 69.3334 74.0696 69.3334 73.3333V58.8092C69.3581 56.8189 67.9545 55.0969 66.0001 54.72ZM66.6667 71.9999H47.0932L39.0931 66.2864C38.8015 66.0794 38.6394 65.7337 38.6667 65.3762C38.6941 65.0188 38.9063 64.7018 39.2266 64.5409L39.4362 64.4374C39.7474 64.2792 40.1179 64.2936 40.4161 64.4745L45.9747 67.8079C46.3868 68.0579 46.9017 68.0663 47.321 67.83C47.7409 67.593 48.0007 67.1484 48.0001 66.6666V47.9999C48.0001 47.608 48.1719 47.2363 48.4708 46.9824C48.7728 46.7239 49.1752 46.6152 49.5665 46.6868C50.2325 46.8495 50.6921 47.4576 50.6667 48.1425V58.6666C50.6667 59.4029 51.2637 59.9999 52.0001 59.9999C52.7364 59.9999 53.3334 59.4029 53.3334 58.6666C53.3334 57.9303 53.9304 57.3333 54.6667 57.3333C55.403 57.3333 56.0001 57.9303 56.0001 58.6666C56.0001 59.4029 56.5971 59.9999 57.3334 59.9999C58.0697 59.9999 58.6667 59.4029 58.6667 58.6666C58.6667 57.9303 59.2637 57.3333 60.0001 57.3333C60.7364 57.3333 61.3334 57.9303 61.3334 58.6666C61.3334 59.4029 61.9304 59.9999 62.6667 59.9999C63.403 59.9999 64.0001 59.4029 64.0001 58.6666C64.0001 58.2721 64.1745 57.8977 64.4766 57.6445C64.7793 57.3906 65.1784 57.2844 65.5665 57.3534C66.2325 57.5162 66.6921 58.1243 66.6667 58.8092V71.9999Z" fill="#C76F4E"/>
<path d="M20 16H22.6667V53.3333H20V16Z" fill="#C76F4E"/>
</g>
<defs>
<clipPath id="clip0_586_456">
<rect width="80" height="80" fill="white"/>
</clipPath>
</defs>
</svg>
