<svg width="80" height="80" viewBox="0 0 80 80" fill="none" xmlns="http://www.w3.org/2000/svg">
<path d="M0 0H15.71V15.7101H0V0Z" fill="#C76F4E"/>
<path d="M0 21.3821H15.71V37.0921H0V21.3821Z" fill="#C76F4E"/>
<path d="M0 42.7639H15.71V58.4741H0V42.7639Z" fill="#C76F4E"/>
<path d="M0 64.1458H15.71V79.8557H0V64.1458Z" fill="#C76F4E"/>
<path d="M58.7367 10.2131H68.0654V5.49707H58.7367C58.9157 6.25478 59.0135 7.04347 59.0135 7.8551C59.0135 8.66674 58.9157 9.45542 58.7367 10.2131Z" fill="#C76F4E"/>
<path d="M38.5127 7.8551C38.5127 7.04347 38.6104 6.25478 38.7895 5.49707H24.6798V10.2131H38.7895C38.6103 9.45542 38.5127 8.66674 38.5127 7.8551Z" fill="#C76F4E"/>
<path d="M50.2198 31.5952H68.0654V26.8792H50.2198C50.399 27.6369 50.4966 28.4255 50.4966 29.2372C50.4966 30.0488 50.399 30.8375 50.2198 31.5952Z" fill="#C76F4E"/>
<path d="M29.9958 29.2372C29.9958 28.4255 30.0934 27.6369 30.2726 26.8792H24.6798V31.5952H30.2726C30.0935 30.8375 29.9958 30.0487 29.9958 29.2372Z" fill="#C76F4E"/>
<path d="M51.5936 48.2607H24.6798V52.9768H51.5936C51.4144 52.2191 51.3168 51.4304 51.3168 50.6188C51.3168 49.8071 51.4145 49.0185 51.5936 48.2607Z" fill="#C76F4E"/>
<path d="M47.4774 72.0009C47.4774 72.8125 47.3796 73.6012 47.2006 74.3589H68.0654V69.6428H47.2006C47.3798 70.4004 47.4774 71.1892 47.4774 72.0009Z" fill="#C76F4E"/>
<path d="M27.2534 69.6428H24.6798V74.3589H27.2534C27.0742 73.6012 26.9765 72.8125 26.9765 72.0009C26.9765 71.1892 27.0743 70.4004 27.2534 69.6428Z" fill="#C76F4E"/>
<path d="M61.5671 45.0845C58.5155 45.0845 56.0328 47.5672 56.0328 50.6188C56.0328 53.6705 58.5155 56.1532 61.5671 56.1532C64.6189 56.1532 67.1016 53.6705 67.1016 50.6188C67.1016 47.5672 64.6189 45.0845 61.5671 45.0845Z" fill="#C76F4E"/>
<path d="M42.7613 72.0008C42.7613 68.949 40.2786 66.4663 37.227 66.4663C34.1753 66.4663 31.6926 68.949 31.6926 72.0008C31.6926 75.0524 34.1753 77.5351 37.227 77.5351C40.2786 77.5351 42.7613 75.0524 42.7613 72.0008Z" fill="#C76F4E"/>
<path d="M43.2287 7.8551C43.2287 10.9069 45.7114 13.3896 48.7632 13.3896C51.8148 13.3896 54.2975 10.9069 54.2975 7.8551C54.2975 4.80349 51.8148 2.3208 48.7632 2.3208C45.7114 2.3208 43.2287 4.80349 43.2287 7.8551Z" fill="#C76F4E"/>
<path d="M34.7118 29.2371C34.7118 32.2887 37.1945 34.7714 40.2461 34.7714C43.2979 34.7714 45.7806 32.2887 45.7806 29.2371C45.7806 26.1853 43.2979 23.7026 40.2461 23.7026C37.1945 23.7026 34.7118 26.1853 34.7118 29.2371Z" fill="#C76F4E"/>
<path d="M74.0787 5.49707H80V10.2131H74.0787V5.49707Z" fill="#C76F4E"/>
<path d="M74.0787 26.8792H80V31.5952H74.0787V26.8792Z" fill="#C76F4E"/>
<path d="M74.0787 48.2607H80V52.9768H74.0787V48.2607Z" fill="#C76F4E"/>
<path d="M74.0787 69.6428H80V74.3589H74.0787V69.6428Z" fill="#C76F4E"/>
</svg>
