<svg width="80" height="80" viewBox="0 0 80 80" fill="none" xmlns="http://www.w3.org/2000/svg">
<g clip-path="url(#clip0_586_431)">
<path d="M38.9426 60.385C38.9426 59.6947 39.5023 59.135 40.1926 59.135H55.9043C56.5947 59.135 57.1543 59.6947 57.1543 60.385C57.1543 61.0753 56.5947 61.635 55.9043 61.635H40.1926C39.5023 61.635 38.9426 61.0753 38.9426 60.385ZM63.8011 65.7731H40.1926C39.5023 65.7731 38.9426 66.3328 38.9426 67.0231C38.9426 67.7134 39.5023 68.2731 40.1926 68.2731H63.8011C64.4914 68.2731 65.0511 67.7134 65.0511 67.0231C65.0511 66.3328 64.4914 65.7731 63.8011 65.7731ZM25.9822 65.9473C26.2251 66.1842 26.5398 66.3022 26.8547 66.3022C27.1767 66.3022 27.4984 66.1786 27.7428 65.9319L30.4143 63.2352C30.9001 62.7447 30.8964 61.9533 30.4059 61.4675C29.9156 60.9819 29.1242 60.9853 28.6382 61.4759L26.8393 63.2917L26.2372 62.7045C25.7428 62.2227 24.9514 62.233 24.4697 62.7272C23.9878 63.2214 23.9978 64.013 24.4923 64.4947L25.9822 65.9473ZM34.2072 59.03V68.3781C34.2072 69.5292 33.2706 70.4658 32.1195 70.4658H22.7712C21.6201 70.4658 20.6836 69.5292 20.6836 68.3781V59.03C20.6836 57.8787 21.6201 56.9422 22.7712 56.9422H32.1195C33.2706 56.9422 34.2072 57.8787 34.2072 59.03ZM31.7072 59.4422H23.1834V67.9659H31.7072V59.4422ZM25.9822 50.1447C26.2251 50.3816 26.5398 50.4995 26.8547 50.4995C27.1767 50.4995 27.4982 50.3759 27.7428 50.1294L30.4143 47.4328C30.9001 46.9423 30.8965 46.1509 30.4059 45.665C29.9156 45.1794 29.1242 45.183 28.6382 45.6733L26.8393 47.4891L26.2372 46.902C25.7428 46.42 24.9514 46.4303 24.4697 46.9247C23.9878 47.4191 23.9978 48.2105 24.4923 48.6922L25.9822 50.1447ZM34.2072 43.2272V52.5755C34.2072 53.7266 33.2706 54.6631 32.1195 54.6631H22.7712C21.6201 54.6631 20.6836 53.7266 20.6836 52.5755V43.2272C20.6836 42.0761 21.6201 41.1395 22.7712 41.1395H32.1195C33.2706 41.1395 34.2072 42.0761 34.2072 43.2272ZM31.7072 43.6395H23.1834V52.1633H31.7072V43.6395ZM25.9822 34.342C26.2251 34.5789 26.5398 34.6969 26.8547 34.6969C27.1765 34.6969 27.4984 34.5731 27.7428 34.3267L30.4143 31.6302C30.9001 31.1397 30.8965 30.3483 30.4059 29.8623C29.9156 29.3767 29.1242 29.3803 28.6382 29.8706L26.8395 31.6864L26.2372 31.0992C25.7428 30.6172 24.9514 30.6275 24.4697 31.1219C23.9878 31.6161 23.9978 32.4077 24.4923 32.8894L25.9822 34.342ZM34.2072 27.4247V36.7728C34.2072 37.9241 33.2706 38.8606 32.1195 38.8606H22.7712C21.6201 38.8606 20.6836 37.9241 20.6836 36.7728V27.4247C20.6836 26.2736 21.6201 25.337 22.7712 25.337H32.1195C33.2706 25.3369 34.2072 26.2734 34.2072 27.4247ZM31.7072 27.8369H23.1834V36.3606H31.7072V27.8369ZM25.9822 18.5394C26.2251 18.7763 26.5398 18.8942 26.8547 18.8942C27.1765 18.8942 27.4984 18.7705 27.7428 18.5241L30.4143 15.8275C30.9001 15.337 30.8965 14.5456 30.4059 14.0597C29.9156 13.5741 29.1242 13.5777 28.6382 14.068L26.8395 15.8837L26.2372 15.2966C25.7428 14.8145 24.9514 14.825 24.4697 15.3192C23.9878 15.8134 23.9978 16.605 24.4923 17.0867L25.9822 18.5394ZM34.2072 11.622V20.9702C34.2072 22.1212 33.2706 23.0578 32.1195 23.0578H22.7712C21.6201 23.0578 20.6836 22.1212 20.6836 20.9702V11.622C20.6836 10.4709 21.6201 9.53438 22.7712 9.53438H32.1195C33.2706 9.53438 34.2072 10.4709 34.2072 11.622ZM31.7072 12.0344H23.1834V20.558H31.7072V12.0344ZM40.1925 30.0297H55.9043C56.5947 30.0297 57.1543 29.47 57.1543 28.7797C57.1543 28.0894 56.5947 27.5297 55.9043 27.5297H40.1925C39.5022 27.5297 38.9425 28.0894 38.9425 28.7797C38.9425 29.47 39.5022 30.0297 40.1925 30.0297ZM40.1926 20.8652H63.8011C64.4914 20.8652 65.0511 20.3055 65.0511 19.6152C65.0511 18.9248 64.4914 18.3652 63.8011 18.3652H40.1926C39.5023 18.3652 38.9426 18.9248 38.9426 19.6152C38.9426 20.3055 39.5023 20.8652 40.1926 20.8652ZM40.1926 14.2272H55.9043C56.5947 14.2272 57.1543 13.6675 57.1543 12.9772C57.1543 12.2869 56.5947 11.7272 55.9043 11.7272H40.1926C39.5023 11.7272 38.9426 12.2869 38.9426 12.9772C38.9426 13.6675 39.5023 14.2272 40.1926 14.2272ZM72.7161 55.862V72.4108C72.7161 76.5092 69.3815 79.8438 65.2831 79.8438H8.08544C3.987 79.8438 0.652466 76.5092 0.652466 72.4108V67.1141C0.652466 65.7356 1.77403 64.6141 3.15247 64.6141H13.0186V2.65625C13.0186 1.27781 14.1401 0.15625 15.5186 0.15625H70.2161C71.5945 0.15625 72.7161 1.27781 72.7161 2.65625V32.4525C76.6861 34.8431 79.3475 39.195 79.3475 44.1572C79.3475 49.1194 76.6861 53.4714 72.7161 55.862ZM13.0184 72.4108V67.1141H3.15247V72.4108C3.15247 75.1308 5.36543 77.3438 8.08544 77.3438C10.8054 77.3438 13.0184 75.1308 13.0184 72.4108ZM70.2161 57.0397C68.8001 57.5381 67.2787 57.8102 65.6945 57.8102C61.2922 57.8102 57.3708 55.7152 54.8723 52.4705H40.1925C39.5022 52.4705 38.9425 51.9108 38.9425 51.2205C38.9425 50.5302 39.5022 49.9705 40.1925 49.9705H53.3431C52.7367 48.6873 52.3243 47.2953 52.1447 45.8323H40.1926C39.5023 45.8323 38.9426 45.2727 38.9426 44.5823C38.9426 43.892 39.5023 43.3323 40.1926 43.3323H52.0675C52.2142 40.882 53.0101 38.6041 54.2851 36.668H40.1926C39.5023 36.668 38.9426 36.1083 38.9426 35.418C38.9426 34.7277 39.5023 34.168 40.1926 34.168H56.3986C58.8378 31.8964 62.1064 30.5044 65.6947 30.5044C67.2787 30.5044 68.8003 30.7766 70.2162 31.2748V2.65625H15.5184V72.4108C15.5184 74.302 14.8084 76.0305 13.6409 77.3438H65.2829C68.0029 77.3438 70.2159 75.1308 70.2159 72.4108V57.0397H70.2161ZM76.8475 44.1572C76.8475 38.0075 71.8442 33.0042 65.6945 33.0042C59.5448 33.0042 54.5417 38.0075 54.5417 44.1572C54.5417 50.3069 59.5448 55.3102 65.6945 55.3102C71.8442 55.3102 76.8475 50.307 76.8475 44.1572ZM74.4493 40.5341C74.4518 41.43 74.1051 42.2734 73.4732 42.9087L66.3147 50.1347C65.6614 50.7916 64.7975 51.1208 63.9334 51.1209C63.0886 51.1209 62.2436 50.8061 61.5953 50.1753L57.9548 46.627C56.63 45.3383 56.6004 43.2103 57.89 41.8842C59.1803 40.558 61.3082 40.5286 62.6339 41.8184L63.8932 43.0459L68.7145 38.1794C68.7151 38.1789 68.7157 38.1783 68.7162 38.1778C70.0209 36.8661 72.1487 36.8605 73.4603 38.1645C74.0956 38.7967 74.4468 39.6381 74.4493 40.5341ZM71.9493 40.5409C71.9487 40.3127 71.8593 40.0983 71.6975 39.9373C71.3636 39.6058 70.8222 39.607 70.4898 39.9398L64.7965 45.6864C64.3131 46.1744 63.5273 46.1808 63.0359 45.7019L60.8897 43.6097C60.7243 43.4491 60.5097 43.3689 60.2951 43.3689C60.0722 43.3689 59.8492 43.4553 59.6818 43.6273C59.3532 43.9652 59.3608 44.5073 59.6986 44.8359L63.3392 48.3844C63.6725 48.7086 64.2114 48.7039 64.54 48.3738L71.6987 41.1477C71.8617 40.9841 71.9498 40.7692 71.9493 40.5409Z" fill="#C76F4E"/>
</g>
<defs>
<clipPath id="clip0_586_431">
<rect width="80" height="80" fill="white"/>
</clipPath>
</defs>
</svg>
