<svg width="80" height="80" viewBox="0 0 80 80" fill="none" xmlns="http://www.w3.org/2000/svg">
<g clip-path="url(#clip0_586_424)">
<path d="M35 60C35 46.25 46.25 35 60 35C62.5 35 65.25 35.5 67.5 36.25V22.5C67.5 21 66.5 20 65 20H27.5H22.5C19.75 20 17.5 17.75 17.5 15C17.5 12.25 19.75 10 22.5 10H65C66.5 10 67.5 9 67.5 7.5C67.5 6 66.5 5 65 5H22.5C17 5 12.5 9.5 12.5 15V65C12.5 70.5 17 75 22.5 75H27.5H40C37 70.75 35 65.75 35 60Z" fill="#C76F4E"/>
<path d="M65 17.5H22.5C21 17.5 20 16.5 20 15C20 13.5 21 12.5 22.5 12.5H65C66.5 12.5 67.5 13.5 67.5 15C67.5 16.5 66.5 17.5 65 17.5Z" fill="#C76F4E"/>
<path d="M79.25 54.75C79 53.5 77.5 52.75 76.25 53C74.5 53.5 73.25 53 73 52.5C72.75 52 73 50.75 74.25 49.25C75.25 48.25 75.25 46.75 74.25 45.75C71.75 43.25 68.75 41.5 65.25 40.5C64 40.25 62.5 41 62.25 42.25C61.75 44 60.75 44.75 60 44.75C59.25 44.75 58.5 43.75 57.75 42.25C57.25 41 56 40.25 54.75 40.5C51.25 41.5 48.25 43.25 45.75 45.75C44.75 46.75 44.75 48.25 45.75 49.25C47 50.5 47.25 51.75 47 52.5C46.75 53 45.5 53.5 43.75 53C42.5 52.75 41 53.5 40.75 54.75C40.25 56.5 40 58.25 40 60C40 61.75 40.25 63.5 40.75 65.25C41 66.5 42.5 67.25 43.75 67C45.5 66.5 46.75 67 47 67.5C47.25 68 47 69.25 45.75 70.75C44.75 71.75 44.75 73.25 45.75 74.25C48.25 76.75 51.25 78.5 54.75 79.5C56 79.75 57.5 79 57.75 77.75C58.25 76 59.25 75.25 60 75.25C60.75 75.25 61.5 76.25 62.25 77.75C62.5 78.75 63.5 79.5 64.75 79.5C65 79.5 65.25 79.5 65.5 79.5C69 78.5 72 76.75 74.5 74.25C75.5 73.25 75.5 71.75 74.5 70.75C73.25 69.5 73 68.25 73.25 67.5C73.5 67 74.75 66.5 76.5 67C77.75 67.25 79.25 66.5 79.5 65.25C80 63.5 80.25 61.75 80.25 60C80.25 58.25 79.75 56.5 79.25 54.75ZM60 67.5C55.75 67.5 52.5 64.25 52.5 60C52.5 55.75 55.75 52.5 60 52.5C64.25 52.5 67.5 55.75 67.5 60C67.5 64.25 64.25 67.5 60 67.5Z" fill="#C76F4E"/>
</g>
<defs>
<clipPath id="clip0_586_424">
<rect width="80" height="80" fill="white"/>
</clipPath>
</defs>
</svg>
