<svg width="80" height="80" viewBox="0 0 80 80" fill="none" xmlns="http://www.w3.org/2000/svg">
<path d="M55.7131 39.897C55.7927 40.2189 55.7411 40.5591 55.5698 40.8429C55.3985 41.1268 55.1215 41.3309 54.7997 41.4105C53.4403 41.7569 52.1978 42.4594 51.2002 43.4457C50.2026 44.4319 49.4859 45.6663 49.1239 47.0216C49.0827 47.1805 49.0106 47.3297 48.9117 47.4608C48.8128 47.5918 48.6891 47.7021 48.5476 47.7853C48.4061 47.8685 48.2496 47.9231 48.087 47.9458C47.9244 47.9686 47.7589 47.959 47.6 47.9178C47.4411 47.8766 47.2919 47.8045 47.1608 47.7056C47.0298 47.6067 46.9195 47.483 46.8363 47.3415C46.753 47.2 46.6985 47.0435 46.6758 46.8809C46.653 46.7183 46.6625 46.5528 46.7038 46.3939C47.1688 44.5976 48.111 42.9606 49.4307 41.6562C50.7503 40.3518 52.3981 39.4286 54.1997 38.9844C54.5214 38.9048 54.8616 38.9562 55.1454 39.1274C55.4292 39.2985 55.6334 39.5754 55.7131 39.897ZM77.9656 66.1067C77.965 67.2043 77.529 68.2569 76.7533 69.0334C75.9776 69.81 74.9256 70.2471 73.828 70.2489H61.7363C61.4563 71.3876 60.8026 72.3996 59.8797 73.123C58.9568 73.8465 57.818 74.2396 56.6454 74.2396C55.4728 74.2396 54.334 73.8465 53.4111 73.123C52.4882 72.3996 51.8345 71.3876 51.5545 70.2489H39.4631C38.7835 70.2486 38.1144 70.0809 37.5149 69.7607C36.9154 69.4405 36.4039 68.9777 36.0257 68.413C35.6475 67.8483 35.4141 67.1992 35.3462 66.5229C35.2783 65.8467 35.3779 65.1641 35.6363 64.5355H14.2222C12.0862 64.5352 9.98791 63.9728 8.13815 62.9047C6.28839 61.8366 4.75233 60.3005 3.68434 58.4507C2.61634 56.6008 2.05402 54.5025 2.05389 52.3665C2.05376 50.2305 2.61583 48.1321 3.6836 46.2822L23.5656 11.8464C24.6333 9.99614 26.1694 8.45959 28.0193 7.39126C29.8692 6.32294 31.9678 5.7605 34.1041 5.7605C36.2403 5.7605 38.3389 6.32294 40.1888 7.39126C42.0388 8.45959 43.5748 9.99614 44.6425 11.8464L54.6483 29.1686C55.2875 28.8226 56.0057 28.6486 56.7324 28.6635C57.4591 28.6784 58.1695 28.8818 58.794 29.2537C59.4185 29.6256 59.9357 30.1533 60.295 30.7851C60.6543 31.417 60.8434 32.1313 60.8438 32.8581V34.75C63.7917 35.6335 66.3932 37.4091 68.2902 39.8324C70.1871 42.2557 71.2862 45.2075 71.4359 48.2813L71.4372 48.3363L71.4505 59.5947C71.4528 60.2243 71.7041 60.8273 72.1496 61.2721C72.5951 61.717 73.1986 61.9674 73.8281 61.9688C74.9252 61.97 75.9769 62.4064 76.7525 63.1822C77.5282 63.9579 77.9645 65.0097 77.9656 66.1067ZM56.6434 36.6416C53.3805 36.6453 50.2522 37.9431 47.945 40.2503C45.6377 42.5576 44.3398 45.6858 44.3361 48.9488V59.5963C44.3368 60.4271 44.1236 61.2441 43.7172 61.9688H69.5731C69.1661 61.245 68.9517 60.4289 68.9505 59.5986L68.9375 48.3672C68.7932 45.2054 67.4343 42.2213 65.1439 40.0368C62.8536 37.8524 59.8085 36.6361 56.6434 36.6416ZM49.9464 35.7449L38.2742 15.5235C37.8514 14.7924 37.2437 14.1854 36.5122 13.7634C35.7806 13.3414 34.951 13.1193 34.1064 13.1193C33.2619 13.1193 32.4322 13.3414 31.7007 13.7634C30.9691 14.1854 30.3614 14.7924 29.9386 15.5235L10.0563 49.9591C9.63373 50.6904 9.41119 51.5202 9.41102 52.3648C9.41084 53.2094 9.63304 54.0393 10.0553 54.7708C10.4775 55.5023 11.0849 56.1098 11.8163 56.5322C12.5478 56.9546 13.3776 57.1769 14.2222 57.1769H41.8361V48.9488C41.8383 46.2139 42.5971 43.533 44.0285 41.2026C45.4599 38.8723 47.5081 36.9834 49.9464 35.7449ZM54.9481 32.8581V34.2392C56.0761 34.1077 57.2155 34.109 58.3431 34.2431V32.8581C58.3431 32.4079 58.1643 31.9762 57.8459 31.6578C57.5276 31.3395 57.0958 31.1606 56.6456 31.1606C56.1954 31.1606 55.7637 31.3395 55.4453 31.6578C55.127 31.9762 54.9481 32.4079 54.9481 32.8581ZM14.2222 62.0355H38.7295C38.9716 61.9916 39.2171 61.9694 39.4631 61.9691C40.0779 61.9681 40.6684 61.7287 41.1103 61.3011C41.5521 60.8736 41.8108 60.2913 41.832 59.6769H14.2222C12.9387 59.677 11.6779 59.3392 10.5663 58.6975C9.45481 58.0558 8.5318 57.1328 7.8901 56.0213C7.24839 54.9097 6.91061 53.6489 6.9107 52.3654C6.9108 51.082 7.24877 49.8211 7.89063 48.7097L27.7733 14.2736C28.4155 13.1623 29.3388 12.2396 30.4505 11.5981C31.5621 10.9566 32.823 10.6189 34.1065 10.6189C35.39 10.6189 36.6509 10.9566 37.7625 11.5981C38.8742 12.2396 39.7975 13.1623 40.4397 14.2736L52.2855 34.7969C52.3395 34.7802 52.3939 34.7644 52.4481 34.7483V32.8581C52.4478 32.2361 52.5866 31.6218 52.8544 31.0603L42.4775 13.0967C40.7031 10.0231 37.6513 8.26048 34.1042 8.26048C30.5572 8.26048 27.5049 10.0231 25.7308 13.0964L5.84876 47.532C4.07548 50.6039 4.07548 54.1277 5.84876 57.1997C7.62204 60.2717 10.675 62.0355 14.2222 62.0355ZM59.0831 70.2489H54.2081C54.438 70.6975 54.7872 71.0739 55.2173 71.3368C55.6473 71.5997 56.1416 71.7387 56.6456 71.7387C57.1497 71.7387 57.6439 71.5997 58.074 71.3368C58.5041 71.0739 58.8533 70.6975 59.0831 70.2489ZM75.4656 66.1067C75.4601 65.6741 75.2858 65.2608 74.9799 64.9549C74.674 64.6489 74.2607 64.4745 73.8281 64.4688H39.4631C39.0365 64.4813 38.6316 64.6595 38.3342 64.9657C38.0369 65.2719 37.8705 65.6819 37.8705 66.1087C37.8705 66.5355 38.0369 66.9455 38.3342 67.2517C38.6316 67.5579 39.0365 67.7361 39.4631 67.7486H73.8281C74.2628 67.7475 74.6793 67.574 74.9863 67.2662C75.2933 66.9584 75.4656 66.5414 75.4656 66.1067ZM37.7909 23.6305C38.2418 24.0926 38.5935 24.6418 38.8245 25.2446C39.0556 25.8474 39.1611 26.4911 39.1347 27.1361L38.5544 40.367C38.4294 42.8358 36.4752 44.7644 34.1036 44.7644C31.7194 44.7644 29.7642 42.8336 29.6525 40.3688L29.0781 27.1372C29.0507 26.493 29.1553 25.8499 29.3854 25.2475C29.6155 24.6452 29.9664 24.0962 30.4164 23.6344C30.8922 23.1356 31.4643 22.7384 32.0979 22.467C32.7316 22.1955 33.4137 22.0554 34.1031 22.055C34.7924 22.0546 35.4747 22.1941 36.1087 22.4648C36.7426 22.7356 37.3151 23.1322 37.7914 23.6305H37.7909ZM36.6375 27.028C36.648 26.7203 36.5957 26.4137 36.4837 26.1269C36.3717 25.8402 36.2024 25.5793 35.9861 25.3602C35.7432 25.1055 35.4512 24.9028 35.1277 24.7644C34.8041 24.626 34.4559 24.5547 34.104 24.5549C33.7521 24.5551 33.4039 24.6267 33.0805 24.7654C32.7571 24.9042 32.4653 25.1072 32.2227 25.362C32.0069 25.5807 31.8382 25.8412 31.7268 26.1275C31.6154 26.4138 31.5637 26.7199 31.5749 27.0269L32.1508 40.2578C32.2017 41.3828 33.0597 42.2644 34.1039 42.2644C35.1597 42.2644 35.9995 41.3981 36.057 40.2488L36.6375 27.028ZM38.5606 50.3041C38.5606 51.1855 38.2993 52.0471 37.8096 52.78C37.3199 53.5129 36.6238 54.0841 35.8095 54.4214C34.9951 54.7587 34.0991 54.847 33.2346 54.675C32.3701 54.503 31.576 54.0786 30.9528 53.4553C30.3295 52.832 29.9051 52.0379 29.7331 51.1734C29.5612 50.3089 29.6495 49.4128 29.9868 48.5985C30.3241 47.7842 30.8954 47.0882 31.6283 46.5985C32.3611 46.1088 33.2228 45.8475 34.1042 45.8475C35.2857 45.8489 36.4185 46.3188 37.2539 47.1543C38.0894 47.9898 38.5593 49.1226 38.5606 50.3041ZM36.0606 50.3041C36.0606 49.9171 35.9459 49.5388 35.7309 49.2171C35.5159 48.8953 35.2103 48.6445 34.8528 48.4964C34.4953 48.3483 34.1018 48.3096 33.7223 48.3851C33.3428 48.4606 32.9941 48.647 32.7205 48.9206C32.4469 49.1943 32.2606 49.5429 32.1851 49.9225C32.1096 50.302 32.1484 50.6954 32.2965 51.0529C32.4446 51.4104 32.6954 51.716 33.0172 51.931C33.339 52.1459 33.7172 52.2607 34.1042 52.2606C34.6229 52.26 35.1202 52.0537 35.487 51.6869C35.8538 51.3201 36.0601 50.8228 36.0606 50.3041Z" fill="#C76F4E"/>
</svg>
