<svg width="60" height="60" viewBox="0 0 60 60" fill="none" xmlns="http://www.w3.org/2000/svg">
<g clip-path="url(#clip0_586_413)">
<path d="M10.0763 12.0375L29.0588 27.4763C27.27 27.8475 25.92 29.4638 25.92 31.395C25.92 31.8938 26.01 32.37 26.1713 32.8088L6.39755 16.7325C5.78354 16.2291 5.39106 15.5053 5.30415 14.7161C5.21724 13.9268 5.44281 13.135 5.93255 12.51C6.1704 12.2025 6.46746 11.9457 6.80618 11.7549C7.1449 11.5641 7.51843 11.4432 7.90469 11.3991C8.29095 11.3551 8.68212 11.3889 9.05511 11.4985C9.42809 11.6082 9.77532 11.7914 10.0763 12.0375Z" fill="#C76F4E"/>
<path d="M28.0575 34.9574L3.97496 40.53C3.59492 40.6148 3.20183 40.6236 2.81839 40.5556C2.43496 40.4877 2.06878 40.3445 1.74102 40.1342C1.41326 39.924 1.13041 39.6509 0.908813 39.3307C0.687215 39.0105 0.53126 38.6495 0.44996 38.2687C0.272772 37.4982 0.406472 36.689 0.822061 36.0165C1.23765 35.3439 1.90162 34.8624 2.66996 34.6762L26.6062 29.1375C26.1576 29.8048 25.9187 30.5909 25.92 31.395C25.92 32.9475 26.79 34.2937 28.0575 34.9574Z" fill="#C76F4E"/>
<path d="M31.6088 34.9763L20.7151 57.9263C20.5515 58.2794 20.3191 58.5963 20.0315 58.8584C19.7439 59.1205 19.4069 59.3227 19.0402 59.4529C18.6735 59.5832 18.2845 59.639 17.896 59.617C17.5075 59.595 17.1272 59.4958 16.7776 59.325C16.0693 58.9688 15.5291 58.3489 15.2731 57.5985C15.0172 56.8482 15.0659 56.0273 15.4088 55.3125L26.1338 32.7075C26.6701 34.275 28.1326 35.4 29.8501 35.4C30.4838 35.4 31.0801 35.25 31.6088 34.9763Z" fill="#C76F4E"/>
<path d="M33.6376 32.4751L44.475 55.3126C44.818 56.0274 44.8667 56.8482 44.6107 57.5986C44.3548 58.3489 43.8146 58.9689 43.1063 59.3251C42.7569 59.496 42.3768 59.5954 41.9885 59.6177C41.6001 59.6399 41.2112 59.5844 40.8446 59.4545C40.4779 59.3246 40.1409 59.1229 39.8531 58.8611C39.5654 58.5994 39.3327 58.2829 39.1688 57.9301L28.3313 35.0888C28.7963 35.2876 29.31 35.4001 29.85 35.4001C31.6538 35.4001 33.1726 34.1626 33.6376 32.4751Z" fill="#C76F4E"/>
<path d="M31.7325 34.9125C32.3564 34.562 32.8753 34.0511 33.2353 33.4326C33.5953 32.8141 33.7834 32.1106 33.78 31.395C33.78 30.5212 33.5062 29.715 33.0375 29.055L57.33 34.6762C58.0988 34.8615 58.7634 35.3429 59.1792 36.0157C59.5949 36.6885 59.7282 37.4982 59.55 38.2687C59.4687 38.6496 59.3127 39.0105 59.0911 39.3307C58.8695 39.6509 58.5867 39.924 58.2589 40.1343C57.9311 40.3445 57.565 40.4878 57.1815 40.5557C56.7981 40.6236 56.405 40.6149 56.025 40.53L31.7325 34.9125ZM32.7975 3.375V28.7475C32.4324 28.3233 31.9801 27.9829 31.4714 27.7496C30.9627 27.5162 30.4096 27.3954 29.85 27.3954C29.2903 27.3954 28.7372 27.5162 28.2286 27.7496C27.7199 27.9829 27.2675 28.3233 26.9025 28.7475V3.37875C26.9025 1.7175 28.2225 0.375 29.85 0.375C31.4775 0.375 32.7975 1.7175 32.7975 3.375Z" fill="#C76F4E"/>
<path d="M49.6275 12.0376C49.9283 11.7921 50.2753 11.6093 50.6479 11.5C51.0205 11.3907 51.4112 11.3571 51.7971 11.4011C52.1829 11.4451 52.556 11.5659 52.8944 11.7564C53.2328 11.9469 53.5296 12.2031 53.7675 12.5101C54.2576 13.1346 54.4838 13.9262 54.3976 14.7154C54.3114 15.5046 53.9196 16.2286 53.3062 16.7326L33.5249 32.8088C33.6862 32.3701 33.7762 31.8938 33.7762 31.3951C33.7762 29.4601 32.4262 27.8476 30.6375 27.4763L49.6237 12.0376H49.6275Z" fill="#C76F4E"/>
<path d="M29.85 12.3826C19.5375 12.3826 11.1825 20.8951 11.1825 31.3951C11.1825 41.8951 19.5412 50.4076 29.85 50.4076C40.1625 50.4076 48.5175 41.8951 48.5175 31.3951C48.5175 20.8951 40.1587 12.3826 29.85 12.3826ZM5.28748 31.3951C5.28748 17.5801 16.2862 6.38257 29.85 6.38257C43.4175 6.38257 54.4125 17.5801 54.4125 31.3951C54.4125 45.2138 43.4175 56.4113 29.85 56.4113C16.2862 56.4113 5.28748 45.2138 5.28748 31.3988V31.3951Z" fill="#C76F4E"/>
</g>
<defs>
<clipPath id="clip0_586_413">
<rect width="60" height="60" fill="white"/>
</clipPath>
</defs>
</svg>
